<?xml version="1.0" encoding="UTF-8" standalone="no"?>
<!-- Created with Inkscape (http://www.inkscape.org/) -->

<svg
   xmlns:dc="http://purl.org/dc/elements/1.1/"
   xmlns:cc="http://creativecommons.org/ns#"
   xmlns:rdf="http://www.w3.org/1999/02/22-rdf-syntax-ns#"
   xmlns:svg="http://www.w3.org/2000/svg"
   xmlns="http://www.w3.org/2000/svg"
   xmlns:sodipodi="http://sodipodi.sourceforge.net/DTD/sodipodi-0.dtd"
   xmlns:inkscape="http://www.inkscape.org/namespaces/inkscape"
   width="579.92017"
   height="326.20511"
   version="1.1"
   viewBox="0 0 579.92015 326.20511"
   id="svg6"
   sodipodi:docname="lh-lock-visual.svg"
   inkscape:version="0.92.4 (5da689c313, 2019-01-14)">
  <defs
     id="defs10" />
  <sodipodi:namedview
     pagecolor="#ffffff"
     bordercolor="#666666"
     borderopacity="1"
     objecttolerance="10"
     gridtolerance="10"
     guidetolerance="10"
     inkscape:pageopacity="0"
     inkscape:pageshadow="2"
     inkscape:window-width="1303"
     inkscape:window-height="1173"
     id="namedview8"
     showgrid="false"
     inkscape:zoom="0.20003903"
     inkscape:cx="-1308.5"
     inkscape:cy="-1139.0494"
     inkscape:window-x="0"
     inkscape:window-y="25"
     inkscape:window-maximized="0"
     inkscape:current-layer="svg6"
     fit-margin-top="0"
     fit-margin-left="0"
     fit-margin-right="0"
     fit-margin-bottom="0" />
  <metadata
     id="metadata2">
    <rdf:RDF>
      <cc:Work
         rdf:about="">
        <dc:format>image/svg+xml</dc:format>
        <dc:type
           rdf:resource="http://purl.org/dc/dcmitype/StillImage" />
        <dc:title></dc:title>
      </cc:Work>
    </rdf:RDF>
  </metadata>
  <path
     d="m 0.16,324.12717 c 0,-1.7599 0.06355,-1.9339 0.77134,-2.1115 0.42424,-0.10648 116.668,-0.14522 148.32,-0.0861 54.91,0.10257 57.597,0.0811 58.603,-0.46804 0.57979,-0.31654 1.3352,-1.0365 1.6788,-1.6 0.60692,-0.99539 0.62468,-1.8178 0.62585,-28.981 0.001,-27.574 0.0101,-27.972 0.65606,-29.12 0.36017,-0.63997 1.1882,-1.5236 1.84,-1.9636 1.1194,-0.75566 1.4866,-0.80887 6.6251,-0.96 l 5.44,-0.16 0.18985,-10.24 c 0.11628,-6.2718 0.33643,-10.778 0.56811,-11.629 1.5719,-5.7717 5.5605,-11.26199 10.699,-14.72799 6.6888,-4.5109 10.771,-5.3847 23.583,-5.0482 7.6687,0.20143 9.1024,0.46314 13.318,2.431 7.75,3.6178 12.969,9.53489 15.254,17.29399 0.18138,0.616 0.41497,5.8 0.5191,11.52 l 0.18933,10.4 5.44,0.16 c 4.9658,0.14605 5.5432,0.22416 6.6239,0.89613 0.65113,0.40487 1.4791,1.2139 1.84,1.7978 0.64846,1.0492 0.65615,1.3908 0.65733,29.184 0.001,27.328 0.0188,28.151 0.62585,29.147 0.34356,0.56346 1.099,1.2832 1.6788,1.5994 1.0091,0.55033 5.1424,0.5697 96.749,0.45341 52.632,-0.0668 176.012,-0.0208 176.4,0.10221 0.62202,0.19743 0.70477,0.44657 0.70477,2.1221 v 1.8984 l -178.48,-0.002 c -67.193,-0.001 -98.861,-0.10752 -99.678,-0.33459 -0.81489,-0.22631 -1.4549,-0.71032 -2,-1.5125 l -0.80161,-1.1796 -6.4e-4,-28.006 c -6.4e-4,-31.494 0.15239,-29.521 -2.3995,-30.956 l -1.28,-0.71955 -38.173,-0.005 c -37.609,-0.005 -38.191,0.004 -39.433,0.63787 -2.3712,1.2097 -2.233,-0.65781 -2.2409,30.301 -0.007,26.567 -0.0334,27.834 -0.61319,29.111 -0.33338,0.73428 -1.0079,1.5983 -1.4988,1.92 -0.85565,0.56068 -3.4257,0.58843 -61.947,0.66898 l -151.054,0.0842 z m 234,-74.89 c 0.15462,-8.8499 0.2102,-9.5527 0.88903,-11.243 1.6746,-4.1691 5.1283,-7.8475 9.7222,-10.355 4.7116,-2.57149 15.021,-3.11409 21.448,-1.1289 5.7062,1.7624 10.849,6.666 12.759,12.166 0.66052,1.9018 0.73847,2.8478 0.90959,11.04 l 0.18715,8.96 h 4.16 l -0.01,-9.12 c -0.0109,-10.314 -0.15067,-11.216 -2.4501,-15.811 -1.0119,-2.0217 -1.9092,-3.1972 -4.0934,-5.3618 -2.4003,-2.37919 -3.2686,-3.00069 -6.1218,-4.38169 -4.8798,-2.362 -6.2184,-2.653 -13.053,-2.8383 -7.9559,-0.21563 -11.718,0.4497 -16.671,2.948 -3.8614,1.9477 -8.052,6.06189 -9.8929,9.71259 -2.1648,4.2928 -2.3562,5.4497 -2.5116,15.174 -0.0781,4.8854 -0.057,9.1041 0.0469,9.3747 0.14946,0.38948 0.64013,0.47234 2.3532,0.39737 l 2.1644,-0.0947 z m 42.164,2.56 c 0.10287,-7.9183 -0.20118,-10.5 -1.5928,-13.525 -1.4233,-3.0939 -4.9903,-6.4696 -8.275,-7.8313 -1.3099,-0.54303 -3.2804,-1.1625 -4.3789,-1.3766 -2.5614,-0.49922 -10.235,-0.22801 -12.27,0.4337 -4.1272,1.3416 -8.3378,4.4656 -10.123,7.5107 -1.8293,3.1206 -2.1035,4.7145 -2.2552,13.112 -0.0771,4.27 -0.0576,7.9791 0.0435,8.2425 0.16086,0.4192 2.5898,0.46865 19.473,0.39644 l 19.289,-0.0825 z m -25.749,56.759 c -0.15175,-0.39543 2.0966,-11.43 2.9583,-14.519 0.0897,-0.32154 -0.47224,-0.79607 -1.7022,-1.4374 -2.3064,-1.2026 -4.1855,-3.0578 -5.1888,-5.1226 -0.6369,-1.3107 -0.77743,-2.0918 -0.77727,-4.32 1.8e-4,-2.3861 0.11228,-2.9256 0.91301,-4.3946 1.2503,-2.2937 2.8066,-3.762 5.2758,-4.9776 1.9675,-0.96858 2.2908,-1.0278 5.6144,-1.0278 3.1501,0 3.7207,0.0909 5.3428,0.85133 2.4296,1.139 4.5383,3.1453 5.6159,5.3434 1.2077,2.4633 1.2408,6.1201 0.0773,8.5253 -1.0025,2.0723 -2.883,3.9242 -5.2018,5.1226 -1.5031,0.77682 -1.8216,1.0781 -1.6883,1.5974 1.1803,4.5981 3.1104,13.969 2.9586,14.365 -0.17333,0.45171 -1.0494,0.51532 -7.0978,0.51532 -6.0803,0 -6.9238,-0.0619 -7.1001,-0.52115 z m 10.78,-3.1628 c 0,-0.26616 -0.452,-3.0382 -1.0044,-6.16 -0.55245,-3.1218 -1.0204,-6.3204 -1.04,-7.1079 -0.034,-1.3694 0.0202,-1.4579 1.2444,-2.0311 1.8094,-0.84713 3.0023,-2.0461 3.8774,-3.8971 2.2952,-4.855 -1.3289,-10.471 -6.7574,-10.471 -5.4285,0 -9.0526,5.6155 -6.7573,10.471 0.92804,1.9631 2.1259,3.1175 4.1173,3.968 0.836,0.35706 1.52,0.70163 1.52,0.76571 0,0.0641 -0.5676,2.808 -1.2613,6.0977 -0.6937,3.2897 -1.3581,6.6264 -1.4763,7.4149 l -0.21499,1.4337 h 3.8763 c 3.2463,0 3.8763,-0.0787 3.8763,-0.48392 z"
     id="path4"
     inkscape:connector-curvature="0"
     style="fill:#f36b21;stroke:#f36b21;stroke-width:0.31999999"
     sodipodi:nodetypes="ccscccccscscccccscscccccscscccccccccccccccccccccscccccccsccccccccssccccscccccccccsccccccscccccccsccssccscc" />
</svg>
